<svg viewBox="0 0 1024 1024" xmlns="http://www.w3.org/2000/svg">
  <defs>
    <linearGradient id="bg2" x1="0" y1="0" x2="0" y2="1">
      <stop offset="0" stop-color="#160b33"/>
      <stop offset="0.55" stop-color="#0c0a22"/>
      <stop offset="1" stop-color="#070611"/>
    </linearGradient>
    <radialGradient id="glow2" cx="0.5" cy="0.6" r="0.6">
      <stop offset="0" stop-color="#ec4899" stop-opacity="0.40"/>
      <stop offset="0.45" stop-color="#8b5cf6" stop-opacity="0.14"/>
      <stop offset="1" stop-color="#8b5cf6" stop-opacity="0"/>
    </radialGradient>
    <filter id="neon2" x="-50%" y="-50%" width="200%" height="200%">
      <feGaussianBlur stdDeviation="9" result="b"/>
      <feMerge>
        <feMergeNode in="b"/>
        <feMergeNode in="SourceGraphic"/>
      </feMerge>
    </filter>
  </defs>
  <rect width="1024" height="1024" fill="url(#bg2)"/>
  <g stroke="#22d3ee" stroke-opacity="0.08" stroke-width="3">
    <line x1="512" y1="512" x2="60" y2="1024"/>
    <line x1="512" y1="512" x2="290" y2="1024"/>
    <line x1="512" y1="512" x2="512" y2="1024"/>
    <line x1="512" y1="512" x2="734" y2="1024"/>
    <line x1="512" y1="512" x2="964" y2="1024"/>
  </g>
  <rect width="1024" height="1024" fill="url(#glow2)"/>
  <g filter="url(#neon2)">
    <g stroke="#22d3ee" stroke-width="13" stroke-linecap="round" fill="none">
      <rect x="300" y="300" width="424" height="424" rx="48"/>
      <line x1="441.3" y1="316" x2="441.3" y2="708"/>
      <line x1="582.6" y1="316" x2="582.6" y2="708"/>
      <line x1="316" y1="441.3" x2="708" y2="441.3"/>
      <line x1="316" y1="582.6" x2="708" y2="582.6"/>
    </g>
    <g fill="#67e8f9">
      <circle cx="370.7" cy="392" r="26"/>
      <circle cx="653.3" cy="392" r="26"/>
    </g>
    <path d="M 388 560 Q 512 712 636 560" stroke="#f472b6" stroke-width="30"
          stroke-linecap="round" fill="none"/>
  </g>
</svg>
